<svg id="mermaid-1634454540983" width="100%" xmlns="http://www.w3.org/2000/svg" xmlns:xlink="http://www.w3.org/1999/xlink" height="608" style="max-width: 668.75px;" viewBox="-20 -20 668.75 608"><style>#mermaid-1634454540983{font-family:"trebuchet ms",verdana,arial,sans-serif;font-size:16px;fill:#333;}#mermaid-1634454540983 .error-icon{fill:#552222;}#mermaid-1634454540983 .error-text{fill:#552222;stroke:#552222;}#mermaid-1634454540983 .edge-thickness-normal{stroke-width:2px;}#mermaid-1634454540983 .edge-thickness-thick{stroke-width:3.5px;}#mermaid-1634454540983 .edge-pattern-solid{stroke-dasharray:0;}#mermaid-1634454540983 .edge-pattern-dashed{stroke-dasharray:3;}#mermaid-1634454540983 .edge-pattern-dotted{stroke-dasharray:2;}#mermaid-1634454540983 .marker{fill:#333333;stroke:#333333;}#mermaid-1634454540983 .marker.cross{stroke:#333333;}#mermaid-1634454540983 svg{font-family:"trebuchet ms",verdana,arial,sans-serif;font-size:16px;}#mermaid-1634454540983 g.classGroup text{fill:#9370DB;fill:#131300;stroke:none;font-family:"trebuchet ms",verdana,arial,sans-serif;font-size:10px;}#mermaid-1634454540983 g.classGroup text .title{font-weight:bolder;}#mermaid-1634454540983 .classTitle{font-weight:bolder;}#mermaid-1634454540983 .node rect,#mermaid-1634454540983 .node circle,#mermaid-1634454540983 .node ellipse,#mermaid-1634454540983 .node polygon,#mermaid-1634454540983 .node path{fill:#ECECFF;stroke:#9370DB;stroke-width:1px;}#mermaid-1634454540983 .divider{stroke:#9370DB;stroke:1;}#mermaid-1634454540983 g.clickable{cursor:pointer;}#mermaid-1634454540983 g.classGroup rect{fill:#ECECFF;stroke:#9370DB;}#mermaid-1634454540983 g.classGroup line{stroke:#9370DB;stroke-width:1;}#mermaid-1634454540983 .classLabel .box{stroke:none;stroke-width:0;fill:#ECECFF;opacity:0.5;}#mermaid-1634454540983 .classLabel .label{fill:#9370DB;font-size:10px;}#mermaid-1634454540983 .relation{stroke:#333333;stroke-width:1;fill:none;}#mermaid-1634454540983 .dashed-line{stroke-dasharray:3;}#mermaid-1634454540983 #compositionStart,#mermaid-1634454540983 .composition{fill:#333333 !important;stroke:#333333 !important;stroke-width:1;}#mermaid-1634454540983 #compositionEnd,#mermaid-1634454540983 .composition{fill:#333333 !important;stroke:#333333 !important;stroke-width:1;}#mermaid-1634454540983 #dependencyStart,#mermaid-1634454540983 .dependency{fill:#333333 !important;stroke:#333333 !important;stroke-width:1;}#mermaid-1634454540983 #dependencyStart,#mermaid-1634454540983 .dependency{fill:#333333 !important;stroke:#333333 !important;stroke-width:1;}#mermaid-1634454540983 #extensionStart,#mermaid-1634454540983 .extension{fill:#333333 !important;stroke:#333333 !important;stroke-width:1;}#mermaid-1634454540983 #extensionEnd,#mermaid-1634454540983 .extension{fill:#333333 !important;stroke:#333333 !important;stroke-width:1;}#mermaid-1634454540983 #aggregationStart,#mermaid-1634454540983 .aggregation{fill:#ECECFF !important;stroke:#333333 !important;stroke-width:1;}#mermaid-1634454540983 #aggregationEnd,#mermaid-1634454540983 .aggregation{fill:#ECECFF !important;stroke:#333333 !important;stroke-width:1;}#mermaid-1634454540983 .edgeTerminals{font-size:11px;}#mermaid-1634454540983:root{--mermaid-font-family:"trebuchet ms",verdana,arial,sans-serif;}#mermaid-1634454540983 class{fill:apa;}</style><g></g><defs><marker id="extensionStart" class="extension" refX="0" refY="7" markerWidth="190" markerHeight="240" orient="auto"><path d="M 1,7 L18,13 V 1 Z"></path></marker></defs><defs><marker id="extensionEnd" refX="19" refY="7" markerWidth="20" markerHeight="28" orient="auto"><path d="M 1,1 V 13 L18,7 Z"></path></marker></defs><defs><marker id="compositionStart" class="extension" refX="0" refY="7" markerWidth="190" markerHeight="240" orient="auto"><path d="M 18,7 L9,13 L1,7 L9,1 Z"></path></marker></defs><defs><marker id="compositionEnd" refX="19" refY="7" markerWidth="20" markerHeight="28" orient="auto"><path d="M 18,7 L9,13 L1,7 L9,1 Z"></path></marker></defs><defs><marker id="aggregationStart" class="extension" refX="0" refY="7" markerWidth="190" markerHeight="240" orient="auto"><path d="M 18,7 L9,13 L1,7 L9,1 Z"></path></marker></defs><defs><marker id="aggregationEnd" refX="19" refY="7" markerWidth="20" markerHeight="28" orient="auto"><path d="M 18,7 L9,13 L1,7 L9,1 Z"></path></marker></defs><defs><marker id="dependencyStart" class="extension" refX="0" refY="7" markerWidth="190" markerHeight="240" orient="auto"><path d="M 5,7 L9,13 L1,7 L9,1 Z"></path></marker></defs><defs><marker id="dependencyEnd" refX="19" refY="7" markerWidth="20" markerHeight="28" orient="auto"><path d="M 18,7 L9,13 L14,7 L9,1 Z"></path></marker></defs><g id="classid-Annuity-0" class="classGroup" transform="translate(102.25,295 )"><rect x="0" y="0" width="148" height="101" class=" "></rect><text y="15" x="0"><tspan class="title" x="55.5">Annuity</tspan></text><line x1="0" y1="21" y2="21" x2="148"></line><text x="5" y="31" fill="white" class="classText"><tspan x="5">rate: AnnualPercentageRate</tspan><tspan x="5" dy="10">rounding: Rounding</tspan><tspan x="5" dy="10">calendar: WorkCalendar</tspan><tspan x="5" dy="10">dayOfPayment: int</tspan><tspan x="5" dy="10">date: LocalDate</tspan><tspan x="5" dy="10">value: Money</tspan><tspan x="5" dy="10">duration: int</tspan></text><line x1="0" y1="97" y2="97" x2="148"></line><text x="5" y="112" fill="white" class="classText"></text></g><g id="classid-AnnualPercentageRate-1" class="classGroup" transform="translate(0,451 )"><rect x="0" y="0" width="122" height="31" class=" "></rect><text y="15" x="0"><tspan class="title" x="5">AnnualPercentageRate</tspan></text><line x1="0" y1="22" y2="22" x2="122"></line><text x="5" y="32" fill="white" class="classText"></text><line x1="0" y1="27" y2="27" x2="122"></line><text x="5" y="42" fill="white" class="classText"></text></g><g id="classid-Rounding-2" class="classGroup" transform="translate(172,446 )"><rect x="0" y="0" width="108" height="41" class=" "></rect><text y="15" x="0"><tspan x="28">«interface»</tspan><tspan class="title" dy="10" x="31">Rounding</tspan></text><line x1="0" y1="32" y2="32" x2="108"></line><text x="5" y="42" fill="white" class="classText"></text><line x1="0" y1="37" y2="37" x2="108"></line><text x="5" y="52" fill="white" class="classText"></text></g><g id="classid-NoRounding-3" class="classGroup" transform="translate(62,537 )"><rect x="0" y="0" width="69" height="31" class=" "></rect><text y="15" x="0"><tspan class="title" x="5">NoRounding</tspan></text><line x1="0" y1="22" y2="22" x2="69"></line><text x="5" y="32" fill="white" class="classText"></text><line x1="0" y1="27" y2="27" x2="69"></line><text x="5" y="42" fill="white" class="classText"></text></g><g id="classid-SimpleRounding-4" class="classGroup" transform="translate(181,537 )"><rect x="0" y="0" width="90" height="31" class=" "></rect><text y="15" x="0"><tspan class="title" x="5">SimpleRounding</tspan></text><line x1="0" y1="22" y2="22" x2="90"></line><text x="5" y="32" fill="white" class="classText"></text><line x1="0" y1="27" y2="27" x2="90"></line><text x="5" y="42" fill="white" class="classText"></text></g><g id="classid-SmartRounding-5" class="classGroup" transform="translate(321,537 )"><rect x="0" y="0" width="85" height="31" class=" "></rect><text y="15" x="0"><tspan class="title" x="5">SmartRounding</tspan></text><line x1="0" y1="22" y2="22" x2="85"></line><text x="5" y="32" fill="white" class="classText"></text><line x1="0" y1="27" y2="27" x2="85"></line><text x="5" y="42" fill="white" class="classText"></text></g><g id="classid-AnnuityAlfa-6" class="classGroup" transform="translate(26.75,166.5 )"><rect x="0" y="0" width="66" height="30" class=" "></rect><text y="15" x="0"><tspan class="title" x="5">AnnuityAlfa</tspan></text><line x1="0" y1="21" y2="21" x2="66"></line><text x="5" y="31" fill="white" class="classText"></text><line x1="0" y1="26" y2="26" x2="66"></line><text x="5" y="41" fill="white" class="classText"></text></g><g id="classid-AnnuityGpb-7" class="classGroup" transform="translate(142.75,166 )"><rect x="0" y="0" width="67" height="31" class=" "></rect><text y="15" x="0"><tspan class="title" x="5">AnnuityGpb</tspan></text><line x1="0" y1="22" y2="22" x2="67"></line><text x="5" y="32" fill="white" class="classText"></text><line x1="0" y1="27" y2="27" x2="67"></line><text x="5" y="42" fill="white" class="classText"></text></g><g id="classid-Loan-8" class="classGroup" transform="translate(392.5,0 )"><rect x="0" y="0" width="183" height="68" class=" "></rect><text y="15" x="0"><tspan class="title" x="79.5">Loan</tspan></text><line x1="0" y1="21" y2="21" x2="183"></line><text x="5" y="31" fill="white" class="classText"><tspan x="5">conditions: LoanConditions</tspan><tspan x="5" dy="10">extraPayments: List&lt;ExtraPayment&gt;</tspan></text><line x1="0" y1="47" y2="47" x2="183"></line><text x="5" y="62" fill="white" class="classText"><tspan x="5">+schedule() : List&lt;Schedule&gt;</tspan></text></g><g id="classid-LoanConditions-9" class="classGroup" transform="translate(259.75,118 )"><rect x="0" y="0" width="239" height="127" class=" "></rect><text y="15" x="0"><tspan x="93.5">«interface»</tspan><tspan class="title" dy="10" x="81.5">LoanConditions</tspan></text><line x1="0" y1="31" y2="31" x2="239"></line><text x="5" y="41" fill="white" class="classText"></text><line x1="0" y1="36" y2="36" x2="239"></line><text x="5" y="51" fill="white" class="classText"><tspan x="5">+value() : Money</tspan><tspan x="5" dy="10">+date() : LocalDate</tspan><tspan x="5" dy="10">+dayOfPayment() : int</tspan><tspan x="5" dy="10">+duration() : int</tspan><tspan x="5" dy="10">+calendar() : WorkCalendar</tspan><tspan x="5" dy="10">+nominalDate(int i) : LocalDate</tspan><tspan x="5" dy="10">+paymentDate(int i) : LocalDate</tspan><tspan x="5" dy="10">+schedule(List&lt;Schedule&gt; past, int i) : Schedule</tspan></text></g><g id="classid-ExtraPayment-10" class="classGroup" transform="translate(548.75,166.5 )"><rect x="0" y="0" width="80" height="30" class=" "></rect><text y="15" x="0"><tspan class="title" x="5">ExtraPayment</tspan></text><line x1="0" y1="21" y2="21" x2="80"></line><text x="5" y="31" fill="white" class="classText"></text><line x1="0" y1="26" y2="26" x2="80"></line><text x="5" y="41" fill="white" class="classText"></text></g><g id="classid-Schedule-11" class="classGroup" transform="translate(361.25,330.5 )"><rect x="0" y="0" width="56" height="30" class=" "></rect><text y="15" x="0"><tspan class="title" x="5">Schedule</tspan></text><line x1="0" y1="21" y2="21" x2="56"></line><text x="5" y="31" fill="white" class="classText"></text><line x1="0" y1="26" y2="26" x2="56"></line><text x="5" y="41" fill="white" class="classText"></text></g><path d="M102.25,393.97722342733186L95.375,398.48101952277653C88.5,402.98481561822126,74.75,411.9924078091106,67.875,421.49620390455533C61,431,61,441,61,446L61,451" id="edge0" class="relation" marker-start="url(#compositionStart)"></path><path d="M209.52649006622516,396L212.27207505518763,400.1666666666667C215.01766004415012,404.3333333333333,220.50883002207505,412.6666666666667,223.2544150110375,421C226,429.3333333333333,226,437.6666666666667,226,441.8333333333333L226,446" id="edge1" class="relation" marker-start="url(#compositionStart)"></path><path d="M172,485.47297297297297L159.41666666666666,489.89414414414415C146.83333333333334,494.3153153153153,121.66666666666667,503.15765765765764,109.08333333333333,511.7454954954955C96.5,520.3333333333334,96.5,528.6666666666666,96.5,532.8333333333334L96.5,537" id="edge2" class="relation" marker-start="url(#extensionStart)"></path><path d="M226,487L226,491.1666666666667C226,495.3333333333333,226,503.6666666666667,226,512C226,520.3333333333334,226,528.6666666666666,226,532.8333333333334L226,537" id="edge3" class="relation" marker-start="url(#extensionStart)"></path><path d="M280,484.3690909090909L293.9166666666667,488.97424242424245C307.8333333333333,493.5793939393939,335.6666666666667,502.789696969697,349.5833333333333,511.56151515151515C363.5,520.3333333333334,363.5,528.6666666666666,363.5,532.8333333333334L363.5,537" id="edge4" class="relation" marker-start="url(#extensionStart)"></path><path d="M59.75,196.5L59.75,208.75C59.75,221,59.75,245.5,66.83333333333333,262.340486409156C73.91666666666667,279.1809728183119,88.08333333333333,288.3619456366237,95.16666666666667,292.9524320457797L102.25,297.5429184549356" id="edge5" class="relation" marker-end="url(#extensionEnd)"></path><path d="M176.25,197L176.25,209.16666666666666C176.25,221.33333333333334,176.25,245.66666666666666,176.25,262C176.25,278.3333333333333,176.25,286.6666666666667,176.25,290.8333333333333L176.25,295" id="edge6" class="relation" marker-end="url(#extensionEnd)"></path><path d="M423.635593220339,68L416.23799435028246,72.16666666666667C408.84039548022594,76.33333333333333,394.045197740113,84.66666666666667,386.64759887005647,93C379.25,101.33333333333333,379.25,109.66666666666667,379.25,113.83333333333333L379.25,118" id="edge7" class="relation" marker-start="url(#compositionStart)"></path><path d="M544.3644067796611,68L551.7620056497176,72.16666666666667C559.159604519774,76.33333333333333,573.9548022598871,84.66666666666667,581.3524011299436,101.08333333333333C588.75,117.5,588.75,142,588.75,154.25L588.75,166.5" id="edge8" class="relation" marker-start="url(#compositionStart)"></path><g class="cardinality"><text class="type2" x="593.75" y="154" fill="black" font-size="6">*</text></g><path d="M386.42514124293785,245L386.89595103578154,249.16666666666666C387.3667608286252,253.33333333333334,388.3083804143126,261.6666666666667,388.77919020715626,275.9166666666667C389.25,290.1666666666667,389.25,310.3333333333333,389.25,320.4166666666667L389.25,330.5" id="edge9" class="relation" marker-end="url(#dependencyEnd)"></path><g class="classLabel"><rect class="box" x="360.25" y="276.15625" width="58" height="16.015625"></rect><text class="label" x="389.25" y="287.6704548274058" fill="red" text-anchor="middle">&lt;&lt;create&gt;&gt;</text></g><path d="M324.7189265536723,245L321.14077212806023,249.16666666666666C317.5626177024482,253.33333333333334,310.4063088512241,261.6666666666667,297.9948210922787,271.0846456692913C285.5833333333333,280.502624671916,267.9166666666667,291.005249343832,259.0833333333333,296.25656167979L250.25,301.50787401574803" id="edge10" class="relation" marker-start="url(#extensionStart)"></path></svg>